<?xml version="1.0" encoding="UTF-8" standalone="no"?>
<svg
   xmlns:dc="http://purl.org/dc/elements/1.1/"
   xmlns:cc="http://creativecommons.org/ns#"
   xmlns:rdf="http://www.w3.org/1999/02/22-rdf-syntax-ns#"
   xmlns:svg="http://www.w3.org/2000/svg"
   xmlns="http://www.w3.org/2000/svg"
   xmlns:sodipodi="http://sodipodi.sourceforge.net/DTD/sodipodi-0.dtd"
   xmlns:inkscape="http://www.inkscape.org/namespaces/inkscape"
   width="210mm"
   height="297mm"
   viewBox="0 0 210 297"
   version="1.1"
   id="svg8"
   inkscape:version="1.0.1 (3bc2e813f5, 2020-09-07)"
   sodipodi:docname="usercon.svg">
  <defs
     id="defs2" />
  <sodipodi:namedview
     id="base"
     pagecolor="#ffffff"
     bordercolor="#666666"
     borderopacity="1.0"
     inkscape:pageopacity="0.0"
     inkscape:pageshadow="2"
     inkscape:zoom="1.979899"
     inkscape:cx="470.0915"
     inkscape:cy="629.14998"
     inkscape:document-units="mm"
     inkscape:current-layer="layer1"
     inkscape:document-rotation="0"
     showgrid="false"
     inkscape:window-width="1298"
     inkscape:window-height="738"
     inkscape:window-x="52"
     inkscape:window-y="256"
     inkscape:window-maximized="0" />
  <metadata
     id="metadata5">
    <rdf:RDF>
      <cc:Work
         rdf:about="">
        <dc:format>image/svg+xml</dc:format>
        <dc:type
           rdf:resource="http://purl.org/dc/dcmitype/StillImage" />
        <dc:title></dc:title>
      </cc:Work>
    </rdf:RDF>
  </metadata>
  <g
     inkscape:label="Capa 1"
     inkscape:groupmode="layer"
     id="layer1">
    <path
       d="m 112.28578,162.62609 a 2.7970689,2.7871204 0.04618895 1 1 3.23229,0.0218 4.5524394,4.5362476 0.04618847 0 1 3.24912,4.37082 0.34963361,0.34839007 0.04618621 0 1 -0.35199,0.34601 l -9.09025,-0.0613 a 0.34963361,0.34839007 0.04618621 0 1 -0.34727,-0.35074 4.5524394,4.5362476 0.04618847 0 1 3.3081,-4.32658 z m 3.72934,-2.24549 a 2.0978018,2.0903403 0.04619352 1 0 -2.11194,2.07612 2.1001967,2.0927268 0.04619107 0 0 2.11194,-2.07612 z m 2.03945,6.28492 a 3.8510917,3.8373946 0.04618389 0 0 -3.80648,-3.50967 l -0.69927,-0.005 a 3.8510917,3.8373946 0.04618389 0 0 -3.8538,3.45799 z"
       id="path835"
       style="stroke-width:0.174504;fill:#ffffff"
       inkscape:export-xdpi="76"
       inkscape:export-ydpi="76" />
    <path
       d="m 123.75122,160.80744 c -0.0628,-0.0868 -0.14653,-0.15184 -0.20932,-0.21691 -0.54425,-0.56398 -0.54425,-0.56398 -0.021,-1.12797 0.14653,-0.15183 0.14653,-0.2386 0,-0.36875 -0.23025,-0.21692 -0.46052,-0.43383 -0.64891,-0.67245 -0.16747,-0.21691 -0.27213,-0.19522 -0.46052,0 -1.40249,1.47504 -2.82592,2.92838 -4.22841,4.40341 -0.18839,0.19522 -0.33492,0.2603 -0.62799,0.17353 -1.61181,-0.5206 -3.24457,0.80259 -3.2027,2.51623 0.0418,1.5401 1.36063,2.73314 2.80498,2.51623 1.69556,-0.2603 2.63752,-2.01733 1.94675,-3.6442 -0.0628,-0.17353 -0.10466,-0.26029 0.0418,-0.41214 0.52331,-0.5206 1.04663,-1.06289 1.54902,-1.60518 0.12559,-0.13015 0.1884,-0.10846 0.29306,0 0.29306,0.32538 0.60705,0.65075 0.92104,0.95443 0.0837,0.0868 0.1256,0.17353 0.27212,0.0651 0.62798,-0.49891 0.64891,-0.56398 0.10467,-1.12796 -0.0837,-0.0868 -0.16747,-0.17354 -0.25119,-0.2603 -0.52332,-0.54229 -0.52332,-0.54229 0.0209,-1.08458 0.14653,-0.15185 0.23027,-0.13015 0.35587,0 0.29305,0.32537 0.58611,0.62905 0.9001,0.93274 0.0628,0.0651 0.12559,0.21691 0.25119,0.0651 0.1884,-0.21692 0.46052,-0.39045 0.56519,-0.62906 0.0837,-0.13015 -0.2512,-0.30368 -0.37679,-0.47721 z m -6.90779,5.6832 c -0.52332,0 -0.98384,-0.47721 -0.98384,-0.99781 0,-0.54229 0.46052,-1.04119 0.98384,-1.06289 0.52332,0 1.00477,0.47722 1.00477,1.0412 0,0.56398 -0.46052,1.0195 -1.00477,1.0195 z"
       id="path850"
       style="stroke-width:0.213088;fill:#ffffff" />
    <path
       d="m 142.58406,164.30518 a 2.7214307,2.7202718 0 1 0 -3.14496,0 4.4293326,4.4274464 0 0 0 -3.19006,4.24449 0.34017885,0.34003398 0 0 0 0.34017,0.34003 h 8.84466 a 0.34017885,0.34003398 0 0 0 0.34017,-0.34003 4.4293326,4.4274464 0 0 0 -3.18998,-4.24449 z m -3.61359,-2.21615 a 2.041073,2.0402038 0 1 1 2.04107,2.0402 2.0434033,2.0425331 0 0 1 -2.04107,-2.0402 z m -2.02576,6.12061 a 3.7469508,3.7453552 0 0 1 3.72665,-3.40035 h 0.68036 a 3.7469508,3.7453552 0 0 1 3.72666,3.40035 z"
       id="path863"
       style="fill:#ffffff;stroke-width:0.170053" />
  </g>
  <style
     type="text/css"
     id="style848">
	.st0{fill:#FDC324;}
	.st1{fill:#F90B22;}
	.st2{fill:#00BD49;}
	.st3{fill:#0390BE;}
	.st4{fill:#FF0425;}
	.st5{fill:#682CC6;}
	.st6{fill:#CC33AF;}
	.st7{fill:url(#SVGID_1_);}
	.st8{fill:url(#SVGID_2_);}
	.st9{fill:url(#SVGID_3_);}
	.st10{fill:url(#SVGID_4_);}
	.st11{fill:url(#SVGID_5_);}
	.st12{fill:url(#SVGID_6_);}
	.st13{fill:url(#SVGID_7_);}
	.st14{fill:url(#SVGID_8_);}
	.st15{fill:url(#SVGID_9_);}
	.st16{fill:url(#SVGID_10_);}
	.st17{fill:url(#SVGID_11_);}
	.st18{fill:url(#SVGID_12_);}
	.st19{fill:url(#SVGID_13_);}
	.st20{fill:url(#SVGID_14_);}
	.st21{fill:#009A34;}
	.st22{fill:url(#SVGID_15_);}
	.st23{fill:url(#SVGID_16_);}
</style>
</svg>
